<svg xmlns="http://www.w3.org/2000/svg" viewBox="0 0 800 420" width="800" height="420" font-family="Arial, sans-serif">
  <title>Article Distribution by Category</title>
  <rect width="800" height="420" fill="#FFFFFF" rx="8"/>
  
  <rect x="0" y="0" width="800" height="420" fill="#FFFFFF" rx="8" opacity="1"/>
  <rect x="0" y="0" width="800" height="48" fill="#1B2A4A" rx="8" opacity="1"/>
  <rect x="0" y="40" width="800" height="8" fill="#1B2A4A" rx="0" opacity="1"/>
  <text x="400" y="30" text-anchor="middle" font-size="16" fill="#FFFFFF" font-weight="bold" font-style="normal">Article Distribution by Category</text>
  <line x1="220" y1="60" x2="220" y2="380" stroke="#F3F4F6" stroke-width="1"/><text x="220" y="396" text-anchor="middle" font-size="11" fill="#9CA3AF" font-weight="normal" font-style="normal">0</text><line x1="335" y1="60" x2="335" y2="380" stroke="#F3F4F6" stroke-width="1"/><text x="335" y="396" text-anchor="middle" font-size="11" fill="#9CA3AF" font-weight="normal" font-style="normal">2</text><line x1="450" y1="60" x2="450" y2="380" stroke="#F3F4F6" stroke-width="1"/><text x="450" y="396" text-anchor="middle" font-size="11" fill="#9CA3AF" font-weight="normal" font-style="normal">3</text><line x1="565" y1="60" x2="565" y2="380" stroke="#F3F4F6" stroke-width="1"/><text x="565" y="396" text-anchor="middle" font-size="11" fill="#9CA3AF" font-weight="normal" font-style="normal">5</text><line x1="680" y1="60" x2="680" y2="380" stroke="#F3F4F6" stroke-width="1"/><text x="680" y="396" text-anchor="middle" font-size="11" fill="#9CA3AF" font-weight="normal" font-style="normal">6</text>
  <rect x="220" y="67" width="460" height="26" fill="#A50034" rx="3" opacity="1"/><rect x="220" y="107" width="383.33333333333337" height="26" fill="#2E75B6" rx="3" opacity="1"/><rect x="220" y="147" width="306.66666666666663" height="26" fill="#16A34A" rx="3" opacity="1"/><rect x="220" y="187" width="230" height="26" fill="#EA580C" rx="3" opacity="1"/><rect x="220" y="227" width="153.33333333333331" height="26" fill="#7C3AED" rx="3" opacity="1"/><rect x="220" y="267" width="153.33333333333331" height="26" fill="#0D9488" rx="3" opacity="1"/><rect x="220" y="307" width="153.33333333333331" height="26" fill="#F59E0B" rx="3" opacity="1"/><rect x="220" y="347" width="76.66666666666666" height="26" fill="#EC4899" rx="3" opacity="1"/>
  <text x="210" y="84" text-anchor="end" font-size="12" fill="#1F2937" font-weight="normal" font-style="normal">AI_AGENT</text><text x="210" y="124" text-anchor="end" font-size="12" fill="#1F2937" font-weight="normal" font-style="normal">RETAIL_TRANSFORMATION</text><text x="210" y="164" text-anchor="end" font-size="12" fill="#1F2937" font-weight="normal" font-style="normal">AI_COMMERCE</text><text x="210" y="204" text-anchor="end" font-size="12" fill="#1F2937" font-weight="normal" font-style="normal">COMPETITIVE_DYNAMICS</text><text x="210" y="244" text-anchor="end" font-size="12" fill="#1F2937" font-weight="normal" font-style="normal">AI_MARKETING</text><text x="210" y="284" text-anchor="end" font-size="12" fill="#1F2937" font-weight="normal" font-style="normal">PLATFORM_ECOSYSTEM</text><text x="210" y="324" text-anchor="end" font-size="12" fill="#1F2937" font-weight="normal" font-style="normal">EMERGING_TECH</text><text x="210" y="364" text-anchor="end" font-size="12" fill="#1F2937" font-weight="normal" font-style="normal">AGENTIC_COMMERCE</text>
  <text x="688" y="84" text-anchor="start" font-size="12" fill="#A50034" font-weight="bold" font-style="normal">6</text><text x="611.3333333333334" y="124" text-anchor="start" font-size="12" fill="#2E75B6" font-weight="bold" font-style="normal">5</text><text x="534.6666666666666" y="164" text-anchor="start" font-size="12" fill="#16A34A" font-weight="bold" font-style="normal">4</text><text x="458" y="204" text-anchor="start" font-size="12" fill="#EA580C" font-weight="bold" font-style="normal">3</text><text x="381.3333333333333" y="244" text-anchor="start" font-size="12" fill="#7C3AED" font-weight="bold" font-style="normal">2</text><text x="381.3333333333333" y="284" text-anchor="start" font-size="12" fill="#0D9488" font-weight="bold" font-style="normal">2</text><text x="381.3333333333333" y="324" text-anchor="start" font-size="12" fill="#F59E0B" font-weight="bold" font-style="normal">2</text><text x="304.66666666666663" y="364" text-anchor="start" font-size="12" fill="#EC4899" font-weight="bold" font-style="normal">1</text>
  
</svg>