<svg xmlns="http://www.w3.org/2000/svg" viewBox="0 0 800 420" width="800" height="420" font-family="Arial, sans-serif">
  <title>Article Distribution by Category</title>
  <rect width="800" height="420" fill="#FFFFFF" rx="8"/>
  
  <rect x="0" y="0" width="800" height="420" fill="#FFFFFF" rx="8" opacity="1"/>
  <rect x="0" y="0" width="800" height="48" fill="#1B2A4A" rx="8" opacity="1"/>
  <rect x="0" y="40" width="800" height="8" fill="#1B2A4A" rx="0" opacity="1"/>
  <text x="400" y="30" text-anchor="middle" font-size="16" fill="#FFFFFF" font-weight="bold" font-style="normal">Article Distribution by Category</text>
  <line x1="220" y1="60" x2="220" y2="380" stroke="#F3F4F6" stroke-width="1"/><text x="220" y="396" text-anchor="middle" font-size="11" fill="#9CA3AF" font-weight="normal" font-style="normal">0</text><line x1="335" y1="60" x2="335" y2="380" stroke="#F3F4F6" stroke-width="1"/><text x="335" y="396" text-anchor="middle" font-size="11" fill="#9CA3AF" font-weight="normal" font-style="normal">3</text><line x1="450" y1="60" x2="450" y2="380" stroke="#F3F4F6" stroke-width="1"/><text x="450" y="396" text-anchor="middle" font-size="11" fill="#9CA3AF" font-weight="normal" font-style="normal">5</text><line x1="565" y1="60" x2="565" y2="380" stroke="#F3F4F6" stroke-width="1"/><text x="565" y="396" text-anchor="middle" font-size="11" fill="#9CA3AF" font-weight="normal" font-style="normal">8</text><line x1="680" y1="60" x2="680" y2="380" stroke="#F3F4F6" stroke-width="1"/><text x="680" y="396" text-anchor="middle" font-size="11" fill="#9CA3AF" font-weight="normal" font-style="normal">10</text>
  <rect x="220" y="65.6" width="460" height="20.8" fill="#A50034" rx="3" opacity="1"/><rect x="220" y="97.6" width="322" height="20.8" fill="#2E75B6" rx="3" opacity="1"/><rect x="220" y="129.6" width="230" height="20.8" fill="#16A34A" rx="3" opacity="1"/><rect x="220" y="161.6" width="138" height="20.8" fill="#EA580C" rx="3" opacity="1"/><rect x="220" y="193.6" width="138" height="20.8" fill="#7C3AED" rx="3" opacity="1"/><rect x="220" y="225.6" width="138" height="20.8" fill="#0D9488" rx="3" opacity="1"/><rect x="220" y="257.6" width="92" height="20.8" fill="#F59E0B" rx="3" opacity="1"/><rect x="220" y="289.6" width="92" height="20.8" fill="#EC4899" rx="3" opacity="1"/><rect x="220" y="321.6" width="92" height="20.8" fill="#A50034" rx="3" opacity="1"/><rect x="220" y="353.6" width="46" height="20.8" fill="#2E75B6" rx="3" opacity="1"/>
  <text x="210" y="80" text-anchor="end" font-size="12" fill="#1F2937" font-weight="normal" font-style="normal">AI_MARKETING</text><text x="210" y="112" text-anchor="end" font-size="12" fill="#1F2937" font-weight="normal" font-style="normal">AI_AGENT</text><text x="210" y="144" text-anchor="end" font-size="12" fill="#1F2937" font-weight="normal" font-style="normal">AI_COMMERCE</text><text x="210" y="176" text-anchor="end" font-size="12" fill="#1F2937" font-weight="normal" font-style="normal">DATA_STRATEGY</text><text x="210" y="208" text-anchor="end" font-size="12" fill="#1F2937" font-weight="normal" font-style="normal">AGENTIC_COMMERCE</text><text x="210" y="240" text-anchor="end" font-size="12" fill="#1F2937" font-weight="normal" font-style="normal">PLATFORM_ECOSYSTEM</text><text x="210" y="272" text-anchor="end" font-size="12" fill="#1F2937" font-weight="normal" font-style="normal">EMERGING_TECH</text><text x="210" y="304" text-anchor="end" font-size="12" fill="#1F2937" font-weight="normal" font-style="normal">COMPETITIVE_DYNAMICS</text><text x="210" y="336" text-anchor="end" font-size="12" fill="#1F2937" font-weight="normal" font-style="normal">RETAIL_TRANSFORMATION</text><text x="210" y="368" text-anchor="end" font-size="12" fill="#1F2937" font-weight="normal" font-style="normal">CUSTOMER_EXPERIENCE</text>
  <text x="688" y="80" text-anchor="start" font-size="12" fill="#A50034" font-weight="bold" font-style="normal">10</text><text x="550" y="112" text-anchor="start" font-size="12" fill="#2E75B6" font-weight="bold" font-style="normal">7</text><text x="458" y="144" text-anchor="start" font-size="12" fill="#16A34A" font-weight="bold" font-style="normal">5</text><text x="366" y="176" text-anchor="start" font-size="12" fill="#EA580C" font-weight="bold" font-style="normal">3</text><text x="366" y="208" text-anchor="start" font-size="12" fill="#7C3AED" font-weight="bold" font-style="normal">3</text><text x="366" y="240" text-anchor="start" font-size="12" fill="#0D9488" font-weight="bold" font-style="normal">3</text><text x="320" y="272" text-anchor="start" font-size="12" fill="#F59E0B" font-weight="bold" font-style="normal">2</text><text x="320" y="304" text-anchor="start" font-size="12" fill="#EC4899" font-weight="bold" font-style="normal">2</text><text x="320" y="336" text-anchor="start" font-size="12" fill="#A50034" font-weight="bold" font-style="normal">2</text><text x="274" y="368" text-anchor="start" font-size="12" fill="#2E75B6" font-weight="bold" font-style="normal">1</text>
  
</svg>