<svg xmlns="http://www.w3.org/2000/svg" viewBox="0 0 800 460" width="800" height="460" font-family="Arial, sans-serif">
  <title>Strategic Importance by Theme</title>
  <rect width="800" height="460" fill="#FFFFFF" rx="8"/>
  
  <rect x="0" y="0" width="800" height="460" fill="#FFFFFF" rx="8" opacity="1"/>
  <rect x="0" y="0" width="800" height="52" fill="#1B2A4A" rx="8" opacity="1"/>
  <rect x="0" y="44" width="800" height="8" fill="#1B2A4A" rx="0" opacity="1"/>
  <text x="400" y="32" text-anchor="middle" font-size="18" fill="#FFFFFF" font-weight="bold" font-style="normal">Strategic Importance by Theme</text>
  <line x1="50" y1="360" x2="780" y2="360" stroke="#F3F4F6" stroke-width="1"/><text x="42" y="364" text-anchor="end" font-size="11" fill="#9CA3AF" font-weight="normal" font-style="normal">0</text><line x1="50" y1="302" x2="780" y2="302" stroke="#F3F4F6" stroke-width="1"/><text x="42" y="306" text-anchor="end" font-size="11" fill="#9CA3AF" font-weight="normal" font-style="normal">2</text><line x1="50" y1="244" x2="780" y2="244" stroke="#F3F4F6" stroke-width="1"/><text x="42" y="248" text-anchor="end" font-size="11" fill="#9CA3AF" font-weight="normal" font-style="normal">4</text><line x1="50" y1="186" x2="780" y2="186" stroke="#F3F4F6" stroke-width="1"/><text x="42" y="190" text-anchor="end" font-size="11" fill="#9CA3AF" font-weight="normal" font-style="normal">6</text><line x1="50" y1="128" x2="780" y2="128" stroke="#F3F4F6" stroke-width="1"/><text x="42" y="132" text-anchor="end" font-size="11" fill="#9CA3AF" font-weight="normal" font-style="normal">8</text><line x1="50" y1="70" x2="780" y2="70" stroke="#F3F4F6" stroke-width="1"/><text x="42" y="74" text-anchor="end" font-size="11" fill="#9CA3AF" font-weight="normal" font-style="normal">10</text>
  <rect x="83" y="84.5" width="80" height="275.5" fill="#A50034" rx="4" opacity="1"/><rect x="229" y="93.20000000000005" width="80" height="266.79999999999995" fill="#2E75B6" rx="4" opacity="1"/><rect x="375" y="104.79999999999995" width="80" height="255.20000000000005" fill="#16A34A" rx="4" opacity="1"/><rect x="521" y="113.5" width="80" height="246.5" fill="#EA580C" rx="4" opacity="1"/><rect x="667" y="128" width="80" height="232" fill="#7C3AED" rx="4" opacity="1"/>
  <text x="123" y="76.5" text-anchor="middle" font-size="13" fill="#A50034" font-weight="bold" font-style="normal">9.5</text><text x="269" y="85.20000000000005" text-anchor="middle" font-size="13" fill="#2E75B6" font-weight="bold" font-style="normal">9.2</text><text x="415" y="96.79999999999995" text-anchor="middle" font-size="13" fill="#16A34A" font-weight="bold" font-style="normal">8.8</text><text x="561" y="105.5" text-anchor="middle" font-size="13" fill="#EA580C" font-weight="bold" font-style="normal">8.5</text><text x="707" y="120" text-anchor="middle" font-size="13" fill="#7C3AED" font-weight="bold" font-style="normal">8.0</text>
  <text x="123" y="378" text-anchor="middle" font-size="11" fill="#1F2937" font-weight="normal" font-style="normal">The Agentic</text><text x="123" y="392" text-anchor="middle" font-size="11" fill="#1F2937" font-weight="normal" font-style="normal">Commerce Revolution</text><text x="269" y="378" text-anchor="middle" font-size="11" fill="#1F2937" font-weight="normal" font-style="normal">AI Marketing</text><text x="269" y="392" text-anchor="middle" font-size="11" fill="#1F2937" font-weight="normal" font-style="normal">Paradigm Shift</text><text x="415" y="378" text-anchor="middle" font-size="11" fill="#1F2937" font-weight="normal" font-style="normal">AI-Native Customer</text><text x="415" y="392" text-anchor="middle" font-size="11" fill="#1F2937" font-weight="normal" font-style="normal">Experience Evolution</text><text x="561" y="378" text-anchor="middle" font-size="11" fill="#1F2937" font-weight="normal" font-style="normal">Strategic Imperative of</text><text x="561" y="392" text-anchor="middle" font-size="11" fill="#1F2937" font-weight="normal" font-style="normal">Data Fabric</text><text x="707" y="378" text-anchor="middle" font-size="11" fill="#1F2937" font-weight="normal" font-style="normal">Platform Ecosystem</text><text x="707" y="392" text-anchor="middle" font-size="11" fill="#1F2937" font-weight="normal" font-style="normal">Reconfiguration</text>
  <line x1="50" y1="70" x2="50" y2="360" stroke="#6B7280" stroke-width="1"/>
  <line x1="50" y1="360" x2="780" y2="360" stroke="#6B7280" stroke-width="1"/>
  
</svg>