<svg xmlns="http://www.w3.org/2000/svg" viewBox="0 0 560 380" width="560" height="380" font-family="Arial, sans-serif">
  <title>Source Diversity</title>
  <rect width="560" height="380" fill="#FFFFFF" rx="8"/>
  
  <rect x="0" y="0" width="560" height="380" fill="#FFFFFF" rx="8" opacity="1"/>
  <rect x="0" y="0" width="560" height="48" fill="#1B2A4A" rx="8" opacity="1"/>
  <rect x="0" y="40" width="560" height="8" fill="#1B2A4A" rx="0" opacity="1"/>
  <text x="280" y="30" text-anchor="middle" font-size="16" fill="#FFFFFF" font-weight="bold" font-style="normal">Source Type Distribution</text>
  <path d="M 160 195 L 160 75 A 120 120 0 0 1 280 195 Z" fill="#A50034" stroke="white" stroke-width="2"/><path d="M 160 195 L 280 195 A 120 120 0 0 1 146.56426286760308 314.2454651871891 Z" fill="#2E75B6" stroke="white" stroke-width="2"/><path d="M 160 195 L 146.56426286760308 314.2454651871891 A 120 120 0 0 1 40.75453481281089 208.43573713239695 Z" fill="#16A34A" stroke="white" stroke-width="2"/><path d="M 160 195 L 40.75453481281089 208.43573713239695 A 120 120 0 0 1 107.933951305893 86.88373585170972 Z" fill="#EA580C" stroke="white" stroke-width="2"/><path d="M 160 195 L 107.933951305893 86.88373585170972 A 120 120 0 0 1 159.99999999999997 75 Z" fill="#7C3AED" stroke="white" stroke-width="2"/>
  <rect x="310" y="90" width="14" height="14" fill="#A50034" rx="2" opacity="1"/><text x="332" y="102" text-anchor="start" font-size="12" fill="#1F2937" font-weight="normal" font-style="normal">Research/Analyst</text><text x="545" y="102" text-anchor="end" font-size="12" fill="#A50034" font-weight="bold" font-style="normal">25%</text><rect x="310" y="128" width="14" height="14" fill="#2E75B6" rx="2" opacity="1"/><text x="332" y="140" text-anchor="start" font-size="12" fill="#1F2937" font-weight="normal" font-style="normal">Tech Media</text><text x="545" y="140" text-anchor="end" font-size="12" fill="#2E75B6" font-weight="bold" font-style="normal">27%</text><rect x="310" y="166" width="14" height="14" fill="#16A34A" rx="2" opacity="1"/><text x="332" y="178" text-anchor="start" font-size="12" fill="#1F2937" font-weight="normal" font-style="normal">Vendor/Brand</text><text x="545" y="178" text-anchor="end" font-size="12" fill="#16A34A" font-weight="bold" font-style="normal">21%</text><rect x="310" y="204" width="14" height="14" fill="#EA580C" rx="2" opacity="1"/><text x="332" y="216" text-anchor="start" font-size="12" fill="#1F2937" font-weight="normal" font-style="normal">News</text><text x="545" y="216" text-anchor="end" font-size="12" fill="#EA580C" font-weight="bold" font-style="normal">20%</text><rect x="310" y="242" width="14" height="14" fill="#7C3AED" rx="2" opacity="1"/><text x="332" y="254" text-anchor="start" font-size="12" fill="#1F2937" font-weight="normal" font-style="normal">Other</text><text x="545" y="254" text-anchor="end" font-size="12" fill="#7C3AED" font-weight="bold" font-style="normal">7%</text>
  
</svg>