<svg xmlns="http://www.w3.org/2000/svg" viewBox="0 0 800 420" width="800" height="420" font-family="Arial, sans-serif">
  <title>Article Distribution by Category</title>
  <rect width="800" height="420" fill="#FFFFFF" rx="8"/>
  
  <rect x="0" y="0" width="800" height="420" fill="#FFFFFF" rx="8" opacity="1"/>
  <rect x="0" y="0" width="800" height="48" fill="#1B2A4A" rx="8" opacity="1"/>
  <rect x="0" y="40" width="800" height="8" fill="#1B2A4A" rx="0" opacity="1"/>
  <text x="400" y="30" text-anchor="middle" font-size="16" fill="#FFFFFF" font-weight="bold" font-style="normal">Article Distribution by Category</text>
  <line x1="220" y1="60" x2="220" y2="380" stroke="#F3F4F6" stroke-width="1"/><text x="220" y="396" text-anchor="middle" font-size="11" fill="#9CA3AF" font-weight="normal" font-style="normal">0</text><line x1="335" y1="60" x2="335" y2="380" stroke="#F3F4F6" stroke-width="1"/><text x="335" y="396" text-anchor="middle" font-size="11" fill="#9CA3AF" font-weight="normal" font-style="normal">3</text><line x1="450" y1="60" x2="450" y2="380" stroke="#F3F4F6" stroke-width="1"/><text x="450" y="396" text-anchor="middle" font-size="11" fill="#9CA3AF" font-weight="normal" font-style="normal">5</text><line x1="565" y1="60" x2="565" y2="380" stroke="#F3F4F6" stroke-width="1"/><text x="565" y="396" text-anchor="middle" font-size="11" fill="#9CA3AF" font-weight="normal" font-style="normal">8</text><line x1="680" y1="60" x2="680" y2="380" stroke="#F3F4F6" stroke-width="1"/><text x="680" y="396" text-anchor="middle" font-size="11" fill="#9CA3AF" font-weight="normal" font-style="normal">10</text>
  <rect x="220" y="66.22222222222223" width="460" height="23.111111111111114" fill="#A50034" rx="3" opacity="1"/><rect x="220" y="101.77777777777777" width="322" height="23.111111111111114" fill="#2E75B6" rx="3" opacity="1"/><rect x="220" y="137.33333333333334" width="230" height="23.111111111111114" fill="#16A34A" rx="3" opacity="1"/><rect x="220" y="172.8888888888889" width="138" height="23.111111111111114" fill="#EA580C" rx="3" opacity="1"/><rect x="220" y="208.44444444444446" width="92" height="23.111111111111114" fill="#7C3AED" rx="3" opacity="1"/><rect x="220" y="244" width="92" height="23.111111111111114" fill="#0D9488" rx="3" opacity="1"/><rect x="220" y="279.5555555555556" width="92" height="23.111111111111114" fill="#F59E0B" rx="3" opacity="1"/><rect x="220" y="315.11111111111114" width="92" height="23.111111111111114" fill="#EC4899" rx="3" opacity="1"/><rect x="220" y="350.6666666666667" width="46" height="23.111111111111114" fill="#A50034" rx="3" opacity="1"/>
  <text x="210" y="81.77777777777779" text-anchor="end" font-size="12" fill="#1F2937" font-weight="normal" font-style="normal">AI_MARKETING</text><text x="210" y="117.33333333333333" text-anchor="end" font-size="12" fill="#1F2937" font-weight="normal" font-style="normal">AI_AGENT</text><text x="210" y="152.8888888888889" text-anchor="end" font-size="12" fill="#1F2937" font-weight="normal" font-style="normal">RETAIL_TRANSFORMATION</text><text x="210" y="188.44444444444446" text-anchor="end" font-size="12" fill="#1F2937" font-weight="normal" font-style="normal">AI_COMMERCE</text><text x="210" y="224" text-anchor="end" font-size="12" fill="#1F2937" font-weight="normal" font-style="normal">CUSTOMER_EXPERIENCE</text><text x="210" y="259.55555555555554" text-anchor="end" font-size="12" fill="#1F2937" font-weight="normal" font-style="normal">PLATFORM_ECOSYSTEM</text><text x="210" y="295.11111111111114" text-anchor="end" font-size="12" fill="#1F2937" font-weight="normal" font-style="normal">COMPETITIVE_DYNAMICS</text><text x="210" y="330.6666666666667" text-anchor="end" font-size="12" fill="#1F2937" font-weight="normal" font-style="normal">AI_PERSONALIZATION</text><text x="210" y="366.22222222222223" text-anchor="end" font-size="12" fill="#1F2937" font-weight="normal" font-style="normal">DATA_STRATEGY</text>
  <text x="688" y="81.77777777777779" text-anchor="start" font-size="12" fill="#A50034" font-weight="bold" font-style="normal">10</text><text x="550" y="117.33333333333333" text-anchor="start" font-size="12" fill="#2E75B6" font-weight="bold" font-style="normal">7</text><text x="458" y="152.8888888888889" text-anchor="start" font-size="12" fill="#16A34A" font-weight="bold" font-style="normal">5</text><text x="366" y="188.44444444444446" text-anchor="start" font-size="12" fill="#EA580C" font-weight="bold" font-style="normal">3</text><text x="320" y="224" text-anchor="start" font-size="12" fill="#7C3AED" font-weight="bold" font-style="normal">2</text><text x="320" y="259.55555555555554" text-anchor="start" font-size="12" fill="#0D9488" font-weight="bold" font-style="normal">2</text><text x="320" y="295.11111111111114" text-anchor="start" font-size="12" fill="#F59E0B" font-weight="bold" font-style="normal">2</text><text x="320" y="330.6666666666667" text-anchor="start" font-size="12" fill="#EC4899" font-weight="bold" font-style="normal">2</text><text x="274" y="366.22222222222223" text-anchor="start" font-size="12" fill="#A50034" font-weight="bold" font-style="normal">1</text>
  
</svg>